<svg width="128" height="37" viewBox="0 0 128 37" fill="none" xmlns="http://www.w3.org/2000/svg">
<path d="M18.6652 5.99233C17.3979 4.50494 15.799 3.34444 14.0009 2.60681C11.871 1.76732 9.59908 1.35896 7.31391 1.40492H0V35.3701H7.31391C9.6049 35.4206 11.8815 34.9913 14.0009 34.109C15.8047 33.3376 17.4049 32.1492 18.6734 30.6389C19.9418 29.0644 20.8726 27.2398 21.4068 25.2812C22.024 23.0013 22.325 20.6457 22.3012 18.2818C22.3236 15.9458 22.0225 13.6182 21.4068 11.3668C20.8716 9.40188 19.9379 7.57148 18.6652 5.99233ZM20.4789 24.7058C20.0061 26.5998 19.1524 28.3747 17.9713 29.9195C16.7779 31.4066 15.2542 32.587 13.5245 33.3642C11.4989 34.2351 9.31336 34.6593 7.11331 34.6084H0.927809V2.09053H7.11331C9.31028 2.03758 11.494 2.44976 13.5245 3.3008C15.2504 4.0572 16.7744 5.21749 17.9713 6.68632C19.1502 8.20409 20.0042 9.95376 20.4789 11.8239C21.0373 13.9125 21.3184 16.0671 21.3148 18.2309C21.3168 20.4169 21.0358 22.5938 20.4789 24.7058Z" fill="#526A86"/>
<path d="M50.9048 5.43375C49.7461 3.97052 48.2817 2.78542 46.6168 1.96361C44.9168 1.15515 43.0617 0.735992 41.1836 0.735992C39.3054 0.735992 37.4504 1.15515 35.7504 1.96361C34.0945 2.78857 32.6389 3.97346 31.4874 5.43375C30.2171 7.07631 29.2617 8.94514 28.6705 10.9437C27.9612 13.308 27.6145 15.7686 27.6424 18.2395C27.6151 20.7214 27.9618 23.1931 28.6705 25.5691C29.2636 27.5902 30.2184 29.4837 31.4874 31.1552C32.6298 32.6462 34.0861 33.8606 35.7504 34.71C37.447 35.5306 39.3034 35.9565 41.1836 35.9565C43.0638 35.9565 44.9202 35.5306 46.6168 34.71C48.2934 33.8689 49.7595 32.6535 50.9048 31.1552C52.1734 29.4822 53.1308 27.5893 53.7301 25.5691C54.4352 23.1925 54.7791 20.7209 54.7498 18.2395C54.7804 15.769 54.4365 13.3085 53.7301 10.9437C53.1329 8.94594 52.1749 7.07769 50.9048 5.43375ZM52.819 25.129C52.3045 27.0438 51.4552 28.8497 50.3114 30.4611C49.2636 31.8999 47.9057 33.0781 46.341 33.906C44.743 34.713 42.9818 35.1331 41.1961 35.1331C39.4105 35.1331 37.6492 34.713 36.0513 33.906C34.4973 33.0725 33.1488 31.895 32.106 30.4611C30.9654 28.8478 30.1164 27.0425 29.5983 25.129C28.4057 20.624 28.4057 15.8804 29.5983 11.3753C30.118 9.48073 30.9672 7.69515 32.106 6.10242C33.1458 4.6778 34.4996 3.51855 36.0596 2.7169C37.6654 1.94772 39.4197 1.54869 41.1961 1.54869C42.9725 1.54869 44.7268 1.94772 46.3326 2.7169C47.9032 3.51314 49.2663 4.673 50.3114 6.10242C51.4533 7.69326 52.3027 9.47944 52.819 11.3753C54.0228 15.8789 54.0228 20.6255 52.819 25.129Z" fill="#526A86"/>
<path d="M62.1891 1.37115H61.2697V35.3279H62.1891V1.37115Z" fill="#526A86"/>
<path d="M87.5078 23.8848C87.1508 23.0014 86.6317 22.1943 85.9781 21.5065C85.3094 20.8196 84.5499 20.23 83.7213 19.7545C82.8854 19.2552 81.9409 18.7896 81.0298 18.3749L75.7219 15.9543C75.1033 15.675 74.4264 15.3449 73.7326 14.9725C73.0029 14.5849 72.3234 14.1073 71.7097 13.5505C71.0627 12.9703 70.5246 12.2765 70.1215 11.5023C69.671 10.5921 69.4499 9.58306 69.4779 8.56531C69.4541 7.59244 69.6538 6.62727 70.0615 5.74597C70.4691 4.86467 71.0734 4.09135 71.8268 3.48703C73.5555 2.16209 75.6875 1.49139 77.8534 1.59115C79.5362 1.56327 81.2039 1.91612 82.7349 2.62381C84.0126 3.23596 85.173 4.07266 86.1621 5.09517L86.6887 4.49428C85.6478 3.47049 84.4581 2.61418 83.1612 1.95514C80.3315 0.611158 77.1062 0.39366 74.1254 1.34577C73.0526 1.70369 72.0549 2.26043 71.1831 2.9877C70.369 3.68586 69.7107 4.55139 69.2522 5.52683C68.7871 6.52683 68.5527 7.6209 68.5668 8.72617C68.5352 9.81949 68.7526 10.9055 69.2021 11.9001C69.6029 12.7488 70.1555 13.515 70.832 14.1599C71.4935 14.7832 72.2292 15.3206 73.022 15.7595C73.8579 16.2081 74.5852 16.606 75.2957 16.9022L80.6035 19.3229C81.4393 19.7122 82.2752 20.1692 83.1111 20.5501C83.8752 20.9652 84.5762 21.4896 85.1924 22.1074C85.8063 22.7315 86.2996 23.4664 86.6468 24.2742C87.0383 25.2487 87.2261 26.2948 87.1985 27.3465C87.2143 28.4574 86.9798 29.5572 86.5131 30.5627C86.0634 31.5173 85.4096 32.3587 84.599 33.0257C83.7204 33.7372 82.7202 34.2794 81.6483 34.6254C80.3978 35.0158 79.0951 35.2071 77.7866 35.1925C75.7347 35.2074 73.7068 34.7439 71.8601 33.8382C70.2076 33.0278 68.7237 31.9046 67.4885 30.5289L66.8783 31.1467C68.1391 32.556 69.6433 33.7204 71.3169 34.583C73.3276 35.5821 75.5475 36.073 77.7866 36.0134C79.2282 36.031 80.6628 35.808 82.0328 35.3532C83.2237 34.9555 84.3277 34.3291 85.2843 33.5082C86.1638 32.7399 86.8755 31.7944 87.374 30.732C87.8778 29.6411 88.1321 28.4492 88.118 27.2449C88.1386 26.0949 87.9311 24.9523 87.5078 23.8848Z" fill="#526A86"/>
<path d="M95.9167 32.6702H92.2974V36.3351H95.9167V32.6702Z" fill="#526A86"/>
<path d="M109.508 36.3351V35.7087H100.138V36.3351H109.508Z" fill="#526A86"/>
<path d="M109.516 0.26236H108.898V36.335H109.516V0.26236Z" fill="#526A86"/>
<path d="M100.765 0.26236H100.146V36.335H100.765V0.26236Z" fill="#526A86"/>
<path d="M109.516 0.626312V0L100.146 0V0.626312L109.516 0.626312Z" fill="#526A86"/>
<path d="M127.939 36.3181H118.619L100.823 18.3072L118.619 0.28775H127.939L110.152 18.3072L127.939 36.3181Z" fill="#526A86"/>
</svg>
